<svg viewBox="0 0 436.33 742.21" xmlns="http://www.w3.org/2000/svg"><path d="m403.94 666.5a16.94 16.94 0 0 0 -5 .76 27.88 27.88 0 0 0 -5.06-11.66 38.6 38.6 0 0 0 -30.55-50.36 21 21 0 0 0 -20.69-19.41 31.55 31.55 0 0 0 -56.25-14.53 21 21 0 1 0 -19.26 37.4 30.34 30.34 0 0 0 -4.6 3.34 39.92 39.92 0 0 0 -37-1.87c0-.29 0-.57 0-.86a37.19 37.19 0 0 0 -37.18-37.18 38.39 38.39 0 0 0 -5.06.35 16.83 16.83 0 1 0 -28.83-13.56 28.55 28.55 0 0 0 -15.7 6.26 42.78 42.78 0 0 0 -62.55 16.05 16.82 16.82 0 0 0 -22.91 15.69 16.49 16.49 0 0 0 .51 4.12 37.2 37.2 0 0 0 -26.16 48.4 32.65 32.65 0 0 0 -3.41 6.26 17.27 17.27 0 0 0 -4.34-.56 16.84 16.84 0 1 0 8 31.63 32.25 32.25 0 0 0 54.19-2.77 40 40 0 0 0 51.67-6 37.2 37.2 0 0 0 34.64 5.82 32.25 32.25 0 0 0 54.6-2.3 39.94 39.94 0 0 0 38.93-.23 21 21 0 0 0 37.07 6.33 44.84 44.84 0 0 0 50.92 2.38 27.9 27.9 0 0 0 40.23 3 16.83 16.83 0 1 0 13.79-26.48z" fill="#f7f5e4" stroke="#000" stroke-linecap="round" stroke-linejoin="round" stroke-width="6.14"/><path d="m250.08 274.86h20.83v383.02h-20.83z" fill="#6c5ba7"/><path d="m229.86 274.86h20.83v383.02h-20.83z" fill="#017ca0"/><path d="m209.64 274.86h20.83v383.02h-20.83z" fill="#6d8f3c"/><path d="m189.42 274.86h20.83v383.02h-20.83z" fill="#fbaa19"/><path d="m169.2 274.86h20.83v383.02h-20.83z" fill="#ed2024"/><g fill="#f7f5e4" stroke="#000" stroke-linecap="round" stroke-linejoin="round" stroke-width="6.14"><path d="m295.38 502.81a12.65 12.65 0 0 0 -16.58-6.75 9.68 9.68 0 0 0 -1.29.64 13.06 13.06 0 0 0 -22.36 12.48 10.08 10.08 0 0 0 -5.07.74 10.2 10.2 0 1 0 7.92 18.81 9.83 9.83 0 0 0 1.78-1 12.63 12.63 0 0 0 22.05-3.38 5.3 5.3 0 0 0 8.67-5.78c0-.06-.05-.11-.07-.16a12.66 12.66 0 0 0 4.95-15.6z"/><path d="m181.2 532.93a14.28 14.28 0 0 0 -24.58-9.9 9 9 0 1 0 -11.35 13.87 9.39 9.39 0 1 0 15.53 10.44 7.34 7.34 0 0 0 13.79-2.34 14.25 14.25 0 0 0 6.61-12.07z"/><path d="m422.54 676.46a36.46 36.46 0 0 0 -53.67-30 19.26 19.26 0 0 0 -8.78-7.61 32.31 32.31 0 0 0 .8-5.43 31.56 31.56 0 0 0 -59.7-16.07 25.15 25.15 0 0 0 -10.52-3 23.66 23.66 0 0 0 -2.38 0 33.8 33.8 0 0 0 -63.29 14.38 34.79 34.79 0 0 0 0 3.82 21 21 0 0 0 -3.89 41.31 44.56 44.56 0 0 0 1.89 13.14 21 21 0 1 0 27.35 29 44.93 44.93 0 0 0 44.55-7.8 21.06 21.06 0 0 0 22.43 2 38.26 38.26 0 0 0 47.08-2.28 36.52 36.52 0 0 0 36 4.28 21 21 0 1 0 22.14-35.75z"/><path d="m278.34 687a22.05 22.05 0 0 0 -14.83 5.71 17.63 17.63 0 0 0 -9.23-4.2 29.47 29.47 0 0 0 -29.28-26.57 30.12 30.12 0 0 0 -3.7.24 16.84 16.84 0 0 0 -16-21.51 36 36 0 0 0 -35.56-34.54 28.75 28.75 0 0 0 -53.42 14.45 18.46 18.46 0 0 0 -16.85 16.87c-.79-.05-1.59-.09-2.39-.09a36 36 0 0 0 -26.21 60.64 29.26 29.26 0 0 0 28.58 35.35 29 29 0 0 0 16.89-5.39 35.92 35.92 0 0 0 41.79 3.3 32.24 32.24 0 0 0 43.9-1.5 30.6 30.6 0 0 0 40.9-8.45 17.7 17.7 0 0 0 17.24.37 22.1 22.1 0 1 0 18.17-34.68z"/></g><path d="m171.59 673.58a10.17 10.17 0 0 0 .81-5.17 9.92 9.92 0 0 0 -5.49-8 9.64 9.64 0 0 0 -4.69-.94h-.14a2.43 2.43 0 0 1 -2.3-2.36 15.4 15.4 0 1 0 -30.78 1.58v.42a2.17 2.17 0 0 1 -2.12 2.21h-.26a8 8 0 0 0 -5.78 1.79 8.67 8.67 0 0 0 -3.1 5.81 1 1 0 0 1 -1.94 0 11.36 11.36 0 0 1 2.6-8.2 12.13 12.13 0 0 1 8.09-4.28l-2.37 2.62a20.28 20.28 0 1 1 40.5-2.06l-2.43-2.37a14.38 14.38 0 0 1 6.81 2.07 13.85 13.85 0 0 1 4.78 5 13.16 13.16 0 0 1 1.69 6.57 13 13 0 0 1 -1.68 6.41 1.24 1.24 0 0 1 -2.22-1.1z"/><path d="m109.46 600.18a15.43 15.43 0 0 0 -7.44-1.54 14.69 14.69 0 0 0 -7 2.1 3 3 0 0 1 -4-1.19 2.56 2.56 0 0 1 -.11-.24l-.06-.13a11.34 11.34 0 0 0 -4.61-5.26 11.2 11.2 0 0 0 -13.2 1.29 11.34 11.34 0 0 0 -3.5 6 3.06 3.06 0 0 1 -3.41 2.4 32.83 32.83 0 0 0 -11 .37 3.07 3.07 0 0 1 -1.23-6 39 39 0 0 1 13.1-.39l-3.44 2.41a17.36 17.36 0 0 1 25.85-11.36 17.59 17.59 0 0 1 7.12 8.13l-4.17-1.56a20.2 20.2 0 0 1 9.85-1.38 19.55 19.55 0 0 1 9 3.36 1.74 1.74 0 0 1 -1.76 3z"/><path d="m370.2 649.15c.13-.06.05 0-.16.19a6.7 6.7 0 0 1 -1.11.85c-.89.51-1.39.72-1.47.82l-1.4.91c-.14.09-.5.49-1.24 1.11s-1.61 1.5-2.43 2.22c-.65.63-1.11 1-1.14 1l-.86 1.17-5.27.27s-.09-.1-.27-.26-.42-.34-.84-.72a7.11 7.11 0 0 1 -1-1.23c-.06-.09-.09-.11-.05-.08l.11.11.17.13a2.6 2.6 0 0 0 -.32-.17l-.43-.21-.49-.26c-.09-.07-.58-.22-1.43-.56-.4-.17-.68-.31-.86-.4l-.19-.08s0 0-.15 0c-.46-.1-.91-.26-1.38-.34s-.95-.15-1.41-.14l-1.41.08h-.31a3.13 3.13 0 0 1 -3.19-2.67c-.05-.37-.1-.75-.13-1.13.08.24.13.25.05.1s-.28-.42-.53-.9a7 7 0 0 1 -.45-1.22l-.11-.43c.12.15 0-.05-.38-.5l-.34-.4a3.36 3.36 0 0 0 -.23-.25l-.41-.45a8.73 8.73 0 0 0 -.87-.85c-.16-.13-.3-.29-.46-.41l-.52-.33-.52-.35a9 9 0 0 1 -.84-.51c-.46-.27-.21-.22-.62-.34a6.82 6.82 0 0 0 -.69-.14h-.23c-.08 0-.17 0-.16 0h-.15a5.1 5.1 0 0 0 -.65 0c-.28 0-.7 0-1-.06l-.69-.09a1.45 1.45 0 0 0 -.47 0h-.67a4.25 4.25 0 0 0 -.76.08l-.75.1h-.25a.83.83 0 0 0 -.24.07c-.41.13-.92.31-1.27.41a6.87 6.87 0 0 0 -1.15.85 1.33 1.33 0 0 1 -1.79-2l.09-.1a6.93 6.93 0 0 1 1.14-1.31c.58-.39 1-.65 1.57-1a4.13 4.13 0 0 1 .48-.25l.5-.2.83-.28a7.64 7.64 0 0 1 .78-.24l.9-.23a5.15 5.15 0 0 1 1.09-.18h.88a4 4 0 0 0 .59-.07c.24 0 .54-.07.92-.09a4.62 4.62 0 0 1 .64 0h.4.87a5.58 5.58 0 0 1 1.25.26c.46.16.81.34 1.08.46a3.22 3.22 0 0 0 .54.24l.87.42.86.43c.28.15.53.36.8.54a12.44 12.44 0 0 1 1.52 1.19l1.25 1.14a6.56 6.56 0 0 1 1.55 2c.22.48.33.83.42 1.06s.14.35.11.25a4 4 0 0 1 .31.43 5.09 5.09 0 0 1 .74 1.51c.16.66.3 1.31.43 2l-3.5-2.66 2.21-.24a20.41 20.41 0 0 1 2.21.08c.73.08 1.45.25 2.18.38.14 0 .48.11.72.19s.47.17.66.24l.8.34a16.39 16.39 0 0 1 2 .75l.18.09.14.06.39.18a8.33 8.33 0 0 1 1.28.7 5.1 5.1 0 0 1 .52.41 5.79 5.79 0 0 1 .43.43 8 8 0 0 1 .5.64c.21.32.32.4.14.21l.54.46a9.16 9.16 0 0 1 1 1l-5.26.27 1.31-1.76a18.11 18.11 0 0 1 1.51-1.43l3-2.64c.22-.13.69-.63 1.54-1.24l1.7-1a15.64 15.64 0 0 1 1.77-.86s.09 0 .35-.22a8 8 0 0 1 1.32-.85 3.07 3.07 0 1 1 2.77 5.48z"/><path d="m162.22 254.58v31s16.47 10.42 52.67 10.42a209.44 209.44 0 0 0 64.65-10.34v-25.9a160.12 160.12 0 0 1 1.56-17.11c25.46-8.07 45.36-44.39 51.42-52.73 9.5-13.06 19.5-35.7 30.68-45.87s14.94-21.65 27.8-33.75c13.34-12.52 23.14-11.16 23.14-20.41 0-16.88-43.32-22.8-75.23 15.43 0 0-20.7 15.23-29.34 25 0 0-6.92-51.2-15.56-66.69s-17.34-17-28.24-17c-12.79 0-18.23 5.19-22.26 12.08 0 0-7.13-9.07-15.57-9.07-10.57 0-19.76 2.45-25.19 5.29s-7.62 11.16-7.62 11.16-6.13-7.65-13.63-7.65c-10.16 0-18.38 3.61-21.52 7.65s-4.27 10.91-4.27 10.91-11.42-17.1-21.71-32.85-15.41-21.88-23.85-34.91c-9.39-14.49-31-.93-26.54 14.7s37.64 77.38 42.26 98.61c2.73 12.53 6 62.34 10.46 77.87 2.57 8.91 10.26 24.33 21.27 34.64 0 0 4.62 14.35 4.62 19.52z" fill="#f7f5e4" stroke="#000" stroke-linecap="round" stroke-linejoin="round" stroke-width="6.14"/><path d="m246.37 59.85c-.27.87-.58 1.66-.8 2.68l-.36 1.47-.31 1.52c-.43 2-.76 4.08-1.13 6.14-.7 4.14-1.27 8.34-1.84 12.52-1.09 8.39-2 16.84-2.82 25.24l-.27 3.14-.12 1.56-.08 1.49c-.07 1.89 0 4 .07 6.12.15 4.18.41 8.38.8 12.54a92.81 92.81 0 0 0 1.77 12.11c.93 3.76 2.41 7 4.84 8.45a10.46 10.46 0 0 0 4.46 1.38l1.32.06h1.46c1 0 1.93-.08 2.85-.17a11.06 11.06 0 0 0 8.39-4.51 19.19 19.19 0 0 0 2.45-4.78 28.47 28.47 0 0 0 .86-2.75c.13-.48.26-.93.38-1.43l.34-1.51c.89-4 1.58-8.17 2.21-12.35s1.18-8.4 2-12.72 1.79-8.45 2.86-12.6c2.14-8.3 4.51-16.5 7.39-24.58a1.69 1.69 0 0 1 3.26.83c-1.3 8.43-3 16.78-4.59 25.1-.79 4.16-1.66 8.32-2.34 12.41s-1.21 8.3-1.81 12.54-1.27 8.53-2.17 12.82-2.11 9-5.11 13.19a17.73 17.73 0 0 1 -5.94 5.25 20.28 20.28 0 0 1 -7.35 2.18c-1.2.13-2.37.21-3.52.23-.58 0-1.1 0-1.73 0l-1.87-.08a17.53 17.53 0 0 1 -7.62-2.42 15.7 15.7 0 0 1 -5.51-6 28.45 28.45 0 0 1 -2.52-6.86 98.79 98.79 0 0 1 -1.88-13.16c-.38-4.32-.62-8.63-.76-13-.06-2.18-.12-4.28 0-6.65l.11-1.69.13-1.63.3-3.23c.82-8.55 1.94-17 3.18-25.5.64-4.24 1.29-8.48 2.09-12.72.4-2.13.81-4.25 1.34-6.39l.37-1.61.46-1.63a32.33 32.33 0 0 1 1.13-3.41 3.06 3.06 0 0 1 5.8 1.93z"/><path d="m195.15 66.05c-3.53 15.06-1.49 50.24.14 59.5s13.48 40.29 20 46 17 2.73 23 0 6.4-13.06 6.4-13.06" fill="none" stroke="#000" stroke-linecap="round" stroke-linejoin="round" stroke-width="6.14"/><path d="m155.71 77c-1.8 9.91 1.61 33.87 3.24 47.21s17.54 41.33 22.46 45.94c6.33 5.92 21.64 1 23.68-2.66 2.26-4.07 1.23-11 1.23-11" fill="none" stroke="#000" stroke-linecap="round" stroke-linejoin="round" stroke-width="6.14"/><path d="m282.05 245.57c-1.06.35-1.94.59-2.9.82s-1.87.46-2.81.65c-1.88.36-3.77.68-5.65.94s-3.77.45-5.66.59-3.78.25-5.73.26a73.85 73.85 0 0 1 -22.5-3.61 1.15 1.15 0 0 1 .51-2.24h.05c3.59.45 7.27.73 10.89.84a94.31 94.31 0 0 0 10.75-.32c1.75-.2 3.55-.4 5.36-.68s3.58-.55 5.36-.86 3.55-.64 5.3-1q1.32-.27 2.61-.57l2.48-.63h.12a3.07 3.07 0 0 1 1.78 5.88z"/><path d="m159.25 232.48c.66.38 1.49.86 2.27 1.28l2.4 1.28q2.43 1.28 4.93 2.46l2.49 1.19.63.3c.2.09.36.14.55.22.37.14.72.3 1.1.44a37.72 37.72 0 0 0 5 1.16 90.26 90.26 0 0 0 10.91 1c3.7.14 7.45.16 11.16.1a1.13 1.13 0 0 1 .23 2.24 102.72 102.72 0 0 1 -11.32 1.58 74.65 74.65 0 0 1 -11.6.19 34 34 0 0 1 -6-.91c-.52-.14-1-.32-1.56-.48-.26-.09-.54-.17-.77-.26l-.67-.26c-.89-.35-1.78-.7-2.66-1.08q-2.64-1.12-5.25-2.39c-.87-.43-1.73-.88-2.58-1.34s-1.68-.93-2.62-1.53a3.07 3.07 0 0 1 3.21-5.23z"/><path d="m233.47 176.62c-.12.14-.38.46-.57.72s-.41.58-.61.87c-.4.6-.8 1.2-1.16 1.84a41.06 41.06 0 0 0 -2.07 3.95 61.56 61.56 0 0 0 -3.18 8.48c-.4 1.47-.83 2.94-1.13 4.44s-.6 3-.86 4.52-.4 3.05-.61 4.57-.24 3.08-.36 4.63v.09a1.63 1.63 0 0 1 -3.25-.13c0-1.6 0-3.21 0-4.82s.11-3.21.27-4.82.29-3.22.55-4.82.53-3.2.84-4.8a66 66 0 0 1 2.74-9.44 48.48 48.48 0 0 1 2-4.59c.36-.76.77-1.5 1.19-2.25.22-.37.42-.74.67-1.12a14.16 14.16 0 0 1 .81-1.19 3.07 3.07 0 1 1 4.93 3.67z"/><path d="m248.29 111.14a22.49 22.49 0 0 1 3.86.07c1.26.09 2.49.26 3.7.45s2.41.4 3.6.67a30.47 30.47 0 0 1 3.59.91h.09a1.5 1.5 0 0 1 0 2.85 12.51 12.51 0 0 1 -4.12.66 19.42 19.42 0 0 1 -4-.39 20.74 20.74 0 0 1 -3.84-1.17 14.13 14.13 0 0 1 -3.56-2 1.15 1.15 0 0 1 -.18-1.61 1.13 1.13 0 0 1 .8-.43z"/><path d="m232.8 122.33a32.67 32.67 0 0 1 -6 2.1 43.06 43.06 0 0 1 -6.2 1.12 35.75 35.75 0 0 1 -6.38.1 20.35 20.35 0 0 1 -6.34-1.45 1.22 1.22 0 0 1 .52-2.34h.07c1.95.08 3.87 0 5.81 0s3.9-.29 5.86-.5 3.94-.48 5.92-.72 4-.51 6-.68a1.27 1.27 0 0 1 .66 2.42z"/><path d="m170.89 125.54c1.06-.27 2.19-.44 3.27-.61s2.17-.32 3.25-.46 2.14-.28 3.23-.38a32 32 0 0 1 3.3-.19h.06a1.44 1.44 0 0 1 .78 2.64 12.32 12.32 0 0 1 -3.33 1.56 17.43 17.43 0 0 1 -3.54.74 21.67 21.67 0 0 1 -3.6.12 15.79 15.79 0 0 1 -3.6-.58 1.46 1.46 0 0 1 0-2.81z"/><path d="m206.26 116.29c2.26-.3 4.51-.5 6.73-.77l3.35-.42c1.12-.13 2.23-.31 3.39-.41a.24.24 0 0 1 .26.22.25.25 0 0 1 -.12.23 14.77 14.77 0 0 1 -3.24 1.34 21.39 21.39 0 0 1 -3.44.69 25.29 25.29 0 0 1 -3.48.2 18.69 18.69 0 0 1 -3.49-.35.37.37 0 0 1 -.28-.44.36.36 0 0 1 .31-.29z"/><path d="m345.37 100.86a4.7 4.7 0 0 0 .12.73c.06.28.14.56.22.85.17.58.35 1.16.57 1.73a22.62 22.62 0 0 0 1.6 3.38 23.48 23.48 0 0 0 2.15 3.16 27.48 27.48 0 0 0 2.66 2.86.84.84 0 0 1 -1 1.34 28.19 28.19 0 0 1 -6.95-5 27.16 27.16 0 0 1 -2.9-3.32c-.45-.6-.87-1.22-1.27-1.87-.2-.33-.4-.65-.58-1a9.9 9.9 0 0 1 -.57-1.17l-.26-.62a3.19 3.19 0 0 1 5.9-2.45 3.26 3.26 0 0 1 .31 1.38z"/><path d="m125 124.27c1.58-.58 3.11-1.1 4.67-1.63s3.11-1 4.68-1.49c3.14-1 6.31-1.83 9.56-2.48a1.36 1.36 0 0 1 .76 2.59c-2.94 1.16-5.81 2.53-8.65 4q-2.13 1.1-4.23 2.24c-1.39.77-2.8 1.55-4.14 2.34a3.08 3.08 0 0 1 -3.13-5.31 3.8 3.8 0 0 1 .48-.26z"/><path d="m133.16 66.79c-1.06.64-2.22 1.23-3.33 1.81l-3.34 1.71-3.32 1.69c-1.12.54-2.2 1.12-3.41 1.61h-.08a1.34 1.34 0 0 1 -1.74-.74 1.36 1.36 0 0 1 .17-1.31 14.22 14.22 0 0 1 3-2.93 20.36 20.36 0 0 1 3.52-2.13 24.91 24.91 0 0 1 3.81-1.5 17.9 17.9 0 0 1 4.06-.77 1.34 1.34 0 0 1 .77 2.48z"/><path d="m112 37.35a7.56 7.56 0 0 1 -1.68 1.58 14.35 14.35 0 0 1 -1.9 1.09c-.65.31-1.32.6-2 .86a13.32 13.32 0 0 1 -2.24.61h-.07a1.4 1.4 0 0 1 -1.58-1.16 1.42 1.42 0 0 1 .16-.89 8.16 8.16 0 0 1 1.61-2 11.82 11.82 0 0 1 2-1.47 8.82 8.82 0 0 1 2.28-1 6.25 6.25 0 0 1 2.61-.16 1.43 1.43 0 0 1 1.2 1.65 1.36 1.36 0 0 1 -.25.62z"/><path d="m232.68 256.23a29.23 29.23 0 0 1 .36 4.65c0 1.54-.07 3.07-.13 4.6l-.38 9.17a1.21 1.21 0 0 1 -2.34.4 23.67 23.67 0 0 1 -1.27-4.77 41.62 41.62 0 0 1 -.48-4.82 33.54 33.54 0 0 1 .09-4.81 20.36 20.36 0 0 1 1-4.75 1.64 1.64 0 0 1 3.17.25z"/><path d="m319.8 153.12a47.34 47.34 0 0 1 -4.17-4.9 49.79 49.79 0 0 1 -3.5-5.4 56.41 56.41 0 0 1 -2.86-5.78 49 49 0 0 1 -2.2-6.19l1.95 2c-3.33-.89-6.74-1.74-10.12-2.47-1.7-.38-3.39-.72-5.09-1a44.48 44.48 0 0 0 -5-.62 1.67 1.67 0 0 1 0-3.34 45 45 0 0 1 5.49.2c1.79.15 3.56.34 5.33.57 3.54.46 7 1 10.55 1.64a2.41 2.41 0 0 1 1.94 1.92v.06a44 44 0 0 0 1.49 5.63 53.59 53.59 0 0 0 2.17 5.55 47.28 47.28 0 0 0 2.8 5.26 42.72 42.72 0 0 0 3.47 4.85v.06a1.52 1.52 0 0 1 -2.29 2z"/><path d="m281.86 95.69a18.09 18.09 0 0 0 2.73-.41 21.67 21.67 0 0 0 2.74-.84 16 16 0 0 0 2.54-1.29 11.1 11.1 0 0 0 2.18-1.81l.06-.06a1 1 0 0 1 1.61 1.24 13.93 13.93 0 0 1 -2.11 2.73 17.57 17.57 0 0 1 -2.66 2.2 23.57 23.57 0 0 1 -3 1.69 20.25 20.25 0 0 1 -3.3 1.28 2.42 2.42 0 0 1 -1.34-4.65 2.83 2.83 0 0 1 .55-.08z"/><path d="m173.34 160.22a19.08 19.08 0 0 1 .13-8.88 10.89 10.89 0 0 1 2.25-4.11 12.59 12.59 0 0 1 3.62-2.75 1.31 1.31 0 0 1 1.34 2.25h-.06a9.41 9.41 0 0 0 -2.49 2.37 7.71 7.71 0 0 0 -1.25 3.05 15.38 15.38 0 0 0 .75 7 2.21 2.21 0 1 1 -4.23 1.27l-.06-.25z"/><path d="m201.89 154.78a27.4 27.4 0 0 0 -1.76-3.51 23.94 23.94 0 0 0 -2.26-3.26 13.28 13.28 0 0 0 -2.81-2.65 7.8 7.8 0 0 0 -3.44-1.37h-.05a.82.82 0 0 1 .05-1.63 9.62 9.62 0 0 1 4.58 1 15.93 15.93 0 0 1 3.82 2.55 26.66 26.66 0 0 1 3.14 3.24 31.47 31.47 0 0 1 2.68 3.69 2.21 2.21 0 0 1 -3.77 2.32 2.48 2.48 0 0 1 -.17-.32z"/><path d="m210.37 167a13.73 13.73 0 0 1 -1.39-6.36 33.87 33.87 0 0 1 .46-5.82c.14-1 .34-1.89.56-2.83a11 11 0 0 1 1.05-3 10.22 10.22 0 0 1 2-2.38 16.55 16.55 0 0 1 2.35-1.79.91.91 0 0 1 1.25.28.9.9 0 0 1 -.19 1.18 11.73 11.73 0 0 0 -3.19 3.81 9.13 9.13 0 0 0 -.49 2.33c-.1.88-.18 1.76-.21 2.65a29.2 29.2 0 0 0 .21 5.23 9.86 9.86 0 0 0 1.36 4.27 2.21 2.21 0 0 1 -3.57 2.62c-.08.02-.15-.08-.2-.19z"/><path d="m235 148.68a4.77 4.77 0 0 0 -.33-.81 8.68 8.68 0 0 0 -.46-.85 7.66 7.66 0 0 0 -1.14-1.48 4.68 4.68 0 0 0 -1.45-1 3.91 3.91 0 0 0 -1.76-.25h-.13a.95.95 0 0 1 -.37-1.84 6.46 6.46 0 0 1 2.79-.39 7.75 7.75 0 0 1 2.72.87 11.61 11.61 0 0 1 2.22 1.62 12.18 12.18 0 0 1 .94 1 10.37 10.37 0 0 1 .89 1.13l.19.29a2.27 2.27 0 1 1 -4.11 1.74z"/><path d="m237.33 149.48a13.22 13.22 0 0 1 -.47-6.34 16.45 16.45 0 0 1 6.14-10.14 11.06 11.06 0 0 1 2.78-1.32c.91-.31 1.79-.56 2.73-.79a1.12 1.12 0 0 1 .63 2.14c-.79.28-1.62.61-2.39 1a8.74 8.74 0 0 0 -2 1.19 13 13 0 0 0 -2.77 3.88 12.23 12.23 0 0 0 -1.21 4.54 9.12 9.12 0 0 0 .75 4.31 2.21 2.21 0 0 1 -4.05 1.77 1.19 1.19 0 0 1 -.14-.24z"/><path d="m261 131a12.6 12.6 0 0 1 3 1.36 12.19 12.19 0 0 1 2.53 2.08 10.92 10.92 0 0 1 1.85 2.82l.32.79.25.81c.17.56.23 1 .36 1.53a32.81 32.81 0 0 1 .63 6.11c0 1 0 2.06-.12 3.09a22.29 22.29 0 0 1 -.5 3.21 2.21 2.21 0 1 1 -4.3-1c0-.06 0-.13 0-.19v-.06a18.42 18.42 0 0 0 .6-2.48c.15-.89.26-1.78.33-2.69a29.1 29.1 0 0 0 -.09-5.44c-.07-.44-.11-.94-.19-1.32l-.12-.59-.18-.56a7.41 7.41 0 0 0 -1.15-2.12 9.64 9.64 0 0 0 -1.79-1.76 10.32 10.32 0 0 0 -2.18-1.26h-.1a1.21 1.21 0 0 1 .85-2.33z"/><path d="m261.54 150.79c-.69.61-.53.39-1.65.74a8.19 8.19 0 0 1 -1.76.44 12.77 12.77 0 0 1 -1.83.1 15 15 0 0 1 -1.83-.11c-.56-.08-1.15-.29-1.78-.44s-1.17-.24-1.79-.44" fill="#f7f5e4"/><path d="m262 151.26a3 3 0 0 1 -.65.56 7.9 7.9 0 0 1 -.77.3c-.39.13-.81.32-1.3.48a5.69 5.69 0 0 1 -1.5.26l-1.47.11-1.45-.09a5 5 0 0 1 -1.48-.28c-.84-.27-1.76-.5-2.66-.81a.74.74 0 0 1 -.45-.94.72.72 0 0 1 .81-.49h.1c.88.15 1.75.3 2.67.54a4.63 4.63 0 0 0 1.22.19l1.3.07a16.6 16.6 0 0 0 2.49-.17c.4-.07.84-.21 1.33-.32l.55-.09a2 2 0 0 0 .45-.26.63.63 0 0 1 .86.17.62.62 0 0 1 -.05.77z"/><path d="m232.09 164.07s-2.42 3.25-10.32 2.47" fill="#f7f5e4"/><path d="m232.59 164.44a6.62 6.62 0 0 1 -2.4 1.93 11.46 11.46 0 0 1 -2.8.91 17.3 17.3 0 0 1 -2.87.26l-1.42-.07c-.47-.06-.94-.11-1.41-.19a.75.75 0 0 1 .12-1.48h2.65a20 20 0 0 0 2.58-.28 11.93 11.93 0 0 0 2.45-.64 8.18 8.18 0 0 0 1.12-.52 5.92 5.92 0 0 0 1-.64l.11-.09a.62.62 0 0 1 .86.09.63.63 0 0 1 .01.72z"/><path d="m194.93 162.44s-3.42 3.67-10 3.51" fill="#f7f5e4"/><path d="m195.39 162.86a9.32 9.32 0 0 1 -2.23 1.91 13.24 13.24 0 0 1 -2.6 1.25 14.3 14.3 0 0 1 -2.81.64 13.67 13.67 0 0 1 -2.86 0 .73.73 0 0 1 -.67-.8.74.74 0 0 1 .67-.68c.87-.08 1.73-.14 2.57-.29a16.16 16.16 0 0 0 2.49-.61 14.54 14.54 0 0 0 2.35-1 14.25 14.25 0 0 0 2.14-1.32h.06a.62.62 0 0 1 .85.88z"/><path d="m140.63 494.32a13.71 13.71 0 0 0 -7.95-5.07 13.28 13.28 0 0 0 -4.7-.17 14 14 0 0 0 -4.44 1.45 13.21 13.21 0 0 0 -6 6.79 12.78 12.78 0 0 0 -.86 4.43 13.52 13.52 0 0 0 .74 4.41l.12.74a2.43 2.43 0 0 1 -2 2.78h-.14a7.71 7.71 0 0 0 -2.87.85 7.79 7.79 0 0 0 -2.43 2 8.39 8.39 0 0 0 -1.68 6.46 1.11 1.11 0 0 1 -2.13.57 11.39 11.39 0 0 1 .51-9 12 12 0 0 1 3-3.83 12.59 12.59 0 0 1 4.41-2.43l-2 3.54a19.27 19.27 0 0 1 -.72-6.32 17.89 17.89 0 0 1 10.09-14.91 18.29 18.29 0 0 1 6-1.62 17.29 17.29 0 0 1 15.77 7.44 1.63 1.63 0 0 1 -2.64 1.92z"/><path d="m367.51 571.21a13.12 13.12 0 0 0 3.11-6.43 13 13 0 0 0 -.68-6.87 11.65 11.65 0 0 0 -1.67-3 11.43 11.43 0 0 0 -2.36-2.35 12.16 12.16 0 0 0 -2.85-1.6 13.26 13.26 0 0 0 -3.12-.75 3 3 0 0 1 -2.55-2.9 21.7 21.7 0 0 0 -4.44-12.87 22.41 22.41 0 0 0 -5.07-4.84 21.43 21.43 0 0 0 -6.4-3 22.27 22.27 0 0 0 -7.09-.88 22.63 22.63 0 0 0 -13.4 5.06 24 24 0 0 0 -4.91 5.48 1.29 1.29 0 0 1 -1.79.38 1.31 1.31 0 0 1 -.42-1.73 26.26 26.26 0 0 1 12.13-10.91 26.77 26.77 0 0 1 24.49 1.61 28.15 28.15 0 0 1 6.55 5.58 27.38 27.38 0 0 1 6.49 15.93l-2.56-2.91a18.4 18.4 0 0 1 4.54 1.65 17.8 17.8 0 0 1 3.86 2.78 16.71 16.71 0 0 1 2.93 3.68 15.7 15.7 0 0 1 1.8 4.27 16 16 0 0 1 .57 4.55 15.65 15.65 0 0 1 -.67 4.46 16.17 16.17 0 0 1 -4.66 7.43 1.28 1.28 0 0 1 -1.81-1.8z"/></svg>