<svg xmlns="http://www.w3.org/2000/svg" xmlns:xlink="http://www.w3.org/1999/xlink" viewBox="0 0 768.45 510.3"><defs><style>.cls-1{fill:none;}.cls-2{fill:#f7f5e4;stroke:#000;stroke-miterlimit:10;stroke-width:8px;}.cls-3{clip-path:url(#clip-path);}.cls-4{fill:#6c5ba7;}.cls-5{fill:#017ca0;}.cls-6{fill:#6d8f3c;}.cls-7{fill:#fbaa19;}.cls-8{fill:#ed2024;}.cls-9{clip-path:url(#clip-path-2);}</style><clipPath id="clip-path" transform="translate(130.81 19.01)"><path class="cls-1" d="M373,68S272.19,149.73,272.19,248.94c0,52.37,16.29,80.12,30.7,84.3,16.73,4.85,33.14-5.79,25.16-23.08-7.18-15.55-10.75-36.36-10.75-59.3,0-76,58.86-117.72,58.86-117.72S453,199,453,264.82c0,41.35-7.41,50.63-11.86,62.63s6.65,23.94,21.29,20.4c16.4-4,36.14-26.25,36.14-83.67C498.54,160.35,373,68,373,68Z"/></clipPath><clipPath id="clip-path-2" transform="translate(130.81 19.01)"><path class="cls-1" d="M126.81,68s100.84,81.72,100.84,180.93c0,52.37-16.29,80.12-30.7,84.3-16.73,4.85-33.14-5.79-25.15-23.08,7.17-15.55,10.75-36.36,10.75-59.3,0-76-58.86-117.72-58.86-117.72S46.87,199,46.87,264.82c0,41.35,7.42,50.63,11.86,62.63s-6.65,23.94-21.28,20.4C21,343.87,1.3,321.6,1.3,264.18,1.3,160.35,126.81,68,126.81,68Z"/></clipPath></defs><g id="Layer_2" data-name="Layer 2"><g id="Layer_1-2" data-name="Layer 1"><path class="cls-2" d="M375.48,4C291.87,4,271.66,92.21,271.66,155.6c0,40.43,26.64,100.15,26.64,149.77s-.92,67.07-.92,99.23c0,40.43,34.92,82.69,80.86,82.69,53.29,0,102-23,102-105.66,0-100.15,15.62-143.47,15.62-230.62C495.84,37.08,432.45,4,375.48,4Z" transform="translate(130.81 19.01)"/><g class="cls-3"><rect class="cls-4" x="443.32" y="104.42" width="59.07" height="407" transform="translate(487.04 -225.16) rotate(45)"/><rect class="cls-5" x="402.79" y="63.88" width="59.07" height="407" transform="translate(446.5 -208.37) rotate(45)"/><rect class="cls-6" x="362.25" y="23.34" width="59.07" height="407" transform="translate(405.97 -191.58) rotate(45)"/><rect class="cls-7" x="321.71" y="-17.19" width="59.07" height="407" transform="translate(365.43 -174.79) rotate(45)"/><rect class="cls-8" x="281.18" y="-57.73" width="59.07" height="407" transform="translate(324.89 -158) rotate(45)"/></g><path class="cls-2" d="M124.36,4C208,4,228.19,92.21,228.19,155.6c0,40.43-26.65,100.15-26.65,149.77s.92,67.07.92,99.23c0,40.43-34.91,82.69-80.85,82.69-53.29,0-102-23-102-105.66C19.62,281.48,4,238.16,4,151,4,37.08,67.4,4,124.36,4Z" transform="translate(130.81 19.01)"/><g class="cls-9"><rect class="cls-4" x="166.58" y="121.38" width="59.07" height="407" transform="translate(417.98 -24.51) rotate(45)"/><rect class="cls-5" x="126.04" y="80.84" width="59.07" height="407" transform="translate(377.44 -7.72) rotate(45)"/><rect class="cls-6" x="85.51" y="40.3" width="59.07" height="407" transform="translate(336.9 9.07) rotate(45)"/><rect class="cls-7" x="44.97" y="-0.23" width="59.07" height="407" transform="translate(296.37 25.86) rotate(45)"/><rect class="cls-8" x="4.43" y="-40.77" width="59.07" height="407" transform="translate(255.83 42.65) rotate(45)"/></g></g></g></svg>