<svg xmlns="http://www.w3.org/2000/svg" viewBox="0 0 751.03 352.35"><defs><style>.cls-1{fill:#ed2024;}.cls-2{fill:#fbaa19;}.cls-3{fill:#6d8f3c;}.cls-4{fill:#017ca0;}.cls-5{fill:#6c5ba7;}.cls-6,.cls-8,.cls-9{fill:#f7f5e4;}.cls-6,.cls-7,.cls-8{stroke:#000;stroke-linejoin:round;stroke-width:7px;}.cls-6,.cls-7{stroke-linecap:round;}.cls-7{fill:none;}</style></defs><g id="Layer_2" data-name="Layer 2"><g id="Layer_1-2" data-name="Layer 1"><path class="cls-1" d="M272.1,71.74,248,73.26c-19.41,19.09-40.93,42.62-66,71.25C90.88,248.71,1.4,275.33,1.4,275.33s35.68,35.11,116.1,35.11c60.57,0,78.65-14.68,124.52-22.69,2.09-5.12,53.45-131.09,53.87-132.34s31.43-78.57,31.43-78.57Z"/><path class="cls-2" d="M374.46,283.26l11.47-174.57L315.42,80.24S286.12,101.05,239,175c-39,61.1-63.71,99.81-121.47,135.49,83.25,0,86.22-27.75,191.41-27.75a308.89,308.89,0,0,1,64.27,6.66Z"/><path class="cls-3" d="M459.74,318.66c4.13-3.69,6.47-6.09,6.47-6.09L445.82,119.31l-41.2-17-44.17-2.12s-77.23,73.42-47.76,182.53C373.83,283.44,418.9,301.23,459.74,318.66Z"/><path class="cls-4" d="M579.52,352.33l-14.35-84.79-48-135.06L438.6,95.24s-79.85,99.11-8.27,211.39c52.59,20.15,95,45.72,148.15,45.72Z"/><path class="cls-5" d="M544.5,195.48c0-37.94,27.18-53.8,27.18-53.8l.32.25-2.16-19.65L512.5,101.47S395,217,562.6,351.59c5.19.49,10.48.76,15.88.76,87.78,0,129.68-44.17,129.68-44.17C583.57,310.44,544.5,233.42,544.5,195.48Z"/><path class="cls-6" d="M502.73,123.56s12.32,32.84-20.81,32.84c-15.86,0-31.15-17.55-31.15-17.55s-9.62,8.21-19,8.21c-20.67,0-21.52-26.62-38.51-26.62-16.7,0-13.59,10.48-29.73,10.48-32.56,0-32.28-41.06-78.15-41.06-53.23,0-77.87,26.62-77.87,26.62,80.32-90,114.23-113,175.84-113,42.05,0,66,20.39,66,20.39s11.89-5.67,23.22-5.67c31.85,0,34.54,26.62,64,26.62,28.81,0,24.35-6.79,45.87-6.79,19.82,0,27.18,12.45,27.18,12.45s8.43-3.82,22-3.82c16.14,0,28.88,9.06,28.88,25.49a22.21,22.21,0,0,1-4.46,13.45s8.5,6.79,8.5,20.38c0,9.7-6.8,13-6.8,13s12.46,6.23,12.46,20.39c0,9.2-9.06,14.15-15.86,14.15-20.81,0-24.28-28.31-40.77-28.31-17,0-11.89,20.6-30,20.6-20.81,0-30.79-31.86-56.06-31.86A36.85,36.85,0,0,0,502.73,123.56Z"/><path class="cls-7" d="M564.74,40.52c14-5.52,25.91,4.46,25.91,14,0,12.53-8.49,17.2-16.77,17.2-13.17,0-14.66-12.32-23.79-12.32-18,0-5.73,22.3-24.85,22.3C498.91,81.72,492.68,46,475.69,46c-17.84,0-5.38,20.11-22.65,20.11-12.74,0-12.74-12.18-23.22-12.18-16.42,0-9.91,23.5-26.62,23.5-31.71,0-51.25-40.2-92.59-40.2-25.2,0-44.46,19-44.46,19"/><path d="M653.69,88.16c-2.13-2.1-4.33-4.15-6.65-6.07-1.16-1-2.36-1.86-3.57-2.76s-2.48-1.7-3.74-2.53a44.7,44.7,0,0,0-3.9-2.29l-2-1.05-2-1c-.67-.35-1.38-.6-2.08-.89s-1.4-.56-2.11-.8-1.37-.5-2.17-.75l-1.06-.35a9.46,9.46,0,0,0-1-.23h0a1.73,1.73,0,0,1,.51-3.42c.4,0,.8.07,1.33.18l1.19.28c.72.15,1.56.38,2.33.56s1.57.41,2.34.65,1.57.43,2.32.73l2.27.84,2.24.92c1.48.65,3,1.26,4.4,2s2.86,1.52,4.26,2.33,2.76,1.7,4.11,2.6c2.69,1.82,5.26,3.8,7.79,5.86A3.51,3.51,0,1,1,654,88.47l-.24-.21Z"/><path class="cls-8" d="M449.36,23.89a100.34,100.34,0,0,1,20.95,23.22"/><path class="cls-9" d="M375.45,3.78s26.34,9.91,45.31,32.28"/><path d="M376.69.51c2.37,1,4.46,2,6.61,3.16s4.22,2.29,6.29,3.5a132.79,132.79,0,0,1,11.91,8c1.94,1.4,3.77,2.94,5.63,4.43l2.7,2.36c.91.77,1.78,1.59,2.63,2.43a109.56,109.56,0,0,1,9.72,10.49,1.87,1.87,0,0,1-2.79,2.49l-.06-.07a104.84,104.84,0,0,0-9.91-9.52c-.86-.75-1.74-1.49-2.66-2.18l-2.71-2.11c-1.87-1.32-3.7-2.7-5.64-3.93a124.11,124.11,0,0,0-11.83-7c-2-1.05-4.08-2.05-6.16-3s-4.22-1.83-6.2-2.54l-.08,0A3.5,3.5,0,1,1,376.5.43Z"/><path d="M210,118.67c-3.42,4-6.84,8.46-10.33,12.7s-7,8.53-10.58,12.75c-7.12,8.45-14.55,16.66-22.19,24.67s-15.49,15.82-23.59,23.38S126.77,207,118.13,213.89s-17.51,13.63-26.65,19.91-18.59,12.14-28.26,17.59c-4.91,2.6-9.77,5.27-14.79,7.66-2.49,1.21-5,2.44-7.53,3.53s-5.07,2.27-7.62,3.35c-5.17,2-10.29,4.16-15.57,5.86-5.21,1.88-10.56,3.37-15.87,4.91A1.44,1.44,0,0,1,.92,274l0,0c10.24-3.91,20.3-8.15,30.15-12.86,4.87-2.45,9.8-4.78,14.56-7.44,4.85-2.5,9.54-5.29,14.26-8,9.38-5.56,18.52-11.5,27.49-17.71s17.6-12.89,26.05-19.79,16.65-14.11,24.63-21.57,15.81-15.08,23.38-23,14.92-16,22.14-24.2c3.61-4.12,7.15-8.29,10.69-12.48s7-8.39,10.78-12.66a3.28,3.28,0,0,1,5,4.3Z"/><path d="M571.3,145.78c-.35.29-.9.78-1.35,1.22s-.94.93-1.4,1.42c-.92,1-1.8,2-2.64,3.06a58.83,58.83,0,0,0-4.64,6.71,64.57,64.57,0,0,0-6.5,15A75.33,75.33,0,0,0,552,189.43l-.12,2.07,0,2.07c0,1.39,0,2.75,0,4.13.12,2.75.38,5.51.76,8.27a104.8,104.8,0,0,0,9.93,31.8A103.13,103.13,0,0,0,582,264.89a114.46,114.46,0,0,0,26.92,20,154.14,154.14,0,0,0,31.4,12.67,224.14,224.14,0,0,0,33.52,6.66l4.26.5,4.28.41c2.85.26,5.71.5,8.57.69,5.73.4,11.47.54,17.23.71h0a1.68,1.68,0,0,1,0,3.36c-5.8.26-11.62.4-17.45.31s-11.65-.3-17.47-.83-11.63-1.19-17.42-2.1-11.53-2.19-17.22-3.67a153.41,153.41,0,0,1-33-12.62,121.71,121.71,0,0,1-28.75-21,110,110,0,0,1-31.67-63c-.41-3-.69-6-.83-9-.05-1.5-.1-3-.05-4.54l.05-2.26.13-2.26a78.31,78.31,0,0,1,3.17-17.86,72.7,72.7,0,0,1,7.4-16.65,61.71,61.71,0,0,1,5.3-7.48c1-1.18,2-2.33,3.09-3.44.54-.56,1.09-1.1,1.67-1.64s1.12-1,1.9-1.64a3.5,3.5,0,0,1,4.4,5.44Z"/><path d="M484.68,158.56a18.31,18.31,0,0,0-1.11,1.62c-.39.59-.74,1.26-1.11,1.89-.69,1.31-1.38,2.65-2,4.05s-1.13,2.82-1.67,4.25-.92,2.92-1.39,4.39a93.05,93.05,0,0,0-3.08,18.36c-.09,1.56-.21,3.12-.29,4.69l0,4.71v2.36l.13,2.36.25,4.73c.25,3.15.66,6.28,1,9.44l1.55,9.38v.09a1.59,1.59,0,0,1-3.12.59l-2-9.48c-.49-3.2-1.08-6.39-1.49-9.61l-.5-4.85-.25-2.42-.11-2.45-.22-4.88c0-1.64,0-3.27,0-4.91a98.74,98.74,0,0,1,2.3-19.6c.43-1.61.78-3.24,1.27-4.84s1-3.2,1.61-4.77,1.27-3.14,2-4.69c.4-.77.75-1.54,1.21-2.31a24.9,24.9,0,0,1,1.5-2.41,3.5,3.5,0,0,1,5.7,4.07l-.11.15Z"/><path d="M416.69,141.52c-.58,1.22-1.2,2.66-1.75,4s-1.11,2.8-1.63,4.22c-1,2.84-2,5.72-2.87,8.63a179.05,179.05,0,0,0-4.35,17.73c-1.15,6-2,12-2.57,18.11s-.77,12.19-.71,18.29A174.9,174.9,0,0,0,404,230.83a182.07,182.07,0,0,0,3.1,18.08A178.44,178.44,0,0,0,419,283.62h0a1.66,1.66,0,0,1-3,1.43A183.63,183.63,0,0,1,403,249.9a186.57,186.57,0,0,1-3.63-18.47,175.9,175.9,0,0,1-1.67-18.76c-.22-6.28-.14-12.58.26-18.85s1.15-12.54,2.19-18.75a179.76,179.76,0,0,1,4.05-18.46c.83-3.05,1.76-6.07,2.76-9.08.51-1.5,1-3,1.61-4.49s1.13-2.94,1.84-4.53a3.5,3.5,0,0,1,6.4,2.85l0,.06Z"/><path d="M342.08,127.14l-.53.87-.57,1L339.81,131c-.77,1.28-1.55,2.56-2.28,3.87s-1.4,2.64-2.17,3.94-1.4,2.65-2.12,4-1.4,2.66-2.05,4l-2.05,4c-.66,1.35-1.36,2.68-2.06,4l-1.92,4.07-1.91,4.08-1.79,4.13c-.58,1.39-1.25,2.74-1.82,4.12l-1.7,4.17c-.57,1.39-1.08,2.8-1.63,4.2s-1.06,2.81-1.54,4.23c-.95,2.84-2.07,5.64-2.86,8.53a1.49,1.49,0,0,1-2.89-.7l0-.1c.64-3,1.61-5.88,2.42-8.82.41-1.47.83-2.93,1.32-4.37s.92-2.91,1.42-4.35l1.49-4.32c.5-1.44,1.1-2.84,1.61-4.27l1.58-4.29,1.71-4.24,1.72-4.24c.63-1.38,1.26-2.77,1.85-4.17l1.85-4.18c.59-1.4,1.2-2.8,1.86-4.17s1.24-2.79,1.93-4.15,1.35-2.74,2-4.13,1.39-2.71,2.11-4.06l1.05-2,.5-1,.58-1.11a3.5,3.5,0,0,1,6.19,3.28l-.09.17Z"/><path d="M301.52,96.69l-.63.55c-.2.17-.33.3-.55.5l-1.24,1.2c-.81.78-1.64,1.55-2.42,2.38-1.57,1.64-3.22,3.22-4.74,4.91q-4.69,5-9.07,10.3c-2.91,3.54-5.86,7-8.61,10.73-1.41,1.82-2.77,3.67-4.11,5.53l-4.07,5.57,0,.06a1.86,1.86,0,0,1-3.07-2.11l3.77-5.86c1.25-2,2.52-3.92,3.83-5.84,2.57-3.89,5.34-7.63,8.09-11.41s5.63-7.45,8.63-11c1.46-1.84,3.06-3.55,4.58-5.35.76-.9,1.58-1.76,2.37-2.63l1.19-1.28c.19-.21.46-.49.69-.72l.63-.62a3.5,3.5,0,1,1,4.92,5Z"/><ellipse class="cls-6" cx="509.05" cy="27.43" rx="11.82" ry="14.19" transform="translate(258.47 471.39) rotate(-63.64)"/><path class="cls-6" d="M662.76,193c-2.9,5.85-11.82,6.62-18.44.95-6-5.1-10.37-11-7.47-16.89s10.94-7.78,18-4.3S665.66,187.11,662.76,193Z"/><path class="cls-6" d="M675.82,187c2-3.73,7.85-4,12-.14,3.73,3.47,6.44,7.45,4.4,11.17s-7.31,4.77-11.78,2.33S673.78,190.67,675.82,187Z"/><path class="cls-6" d="M703.91,97.43c-2.41,6.61-.95,13.71,11.35,17.5s10.87,14.19,22.7,11.82,11.82-9,4.73-17S735.12,89.39,722.82,88,705.8,92.23,703.91,97.43Z"/><path class="cls-6" d="M525.18,102.54c8.55-5.22,22.7.95,26,11.35s-1.42,20.34-8.51,21.76-17-1.42-20.81-10.88S516.67,107.74,525.18,102.54Z"/><path class="cls-6" d="M479.46,171.58c5.49.35,14.18-2.21,14.81,6.62s-.31,9.15,3.79,15.14-5.05,16.39-15.14,6.3-21.12-6-21.12-14.18S464.32,170.64,479.46,171.58Z"/><path class="cls-6" d="M513.86,174.52c-3.57,2.68-4.1,6.62-1.9,10.72s9.46,7.57,13.25,2.84S517.64,171.68,513.86,174.52Z"/><path class="cls-6" d="M360.55,148.66c-4.11,3,3.47,24,16.08,15.14S368.75,142.67,360.55,148.66Z"/></g></g></svg>